# xmcd
#
# Track frame offsets: 
#        150
#        14203
#        31081
#        46946
#        58123
#        73763
#        85919
#        100060
#        115063
#        129915
#        141019
#        151933
#
# Disc length: 2194 seconds
#
# Revision: 0
# Processed by: cddbd v1.5.2PL0 Copyright (c) Steve Scherf et al.
# Submitted via: ExactAudioCopy v0.99pb5
#
DISCID=9a08900c
DTITLE=Rhonda Vincent - Back Home Again
DYEAR=2000
DGENRE=Bluegrass
TTITLE0=Lonesome Wind Blues
TTITLE1=Pretending I Don't Care
TTITLE2=When I Close My Eyes
TTITLE3=You're in My Heart
TTITLE4=Little Angels
TTITLE5=Passing of the Train
TTITLE6=Out of Hand
TTITLE7=Jolene
TTITLE8=You Don't Know How Lucky You Are
TTITLE9=Keep Your Feet on the Ground
TTITLE10=You're Running WIld
TTITLE11=Where No Cabins Fall
EXTD=
EXTT0=
EXTT1=
EXTT2=
EXTT3=
EXTT4=
EXTT5=
EXTT6=
EXTT7=
EXTT8=
EXTT9=
EXTT10=
EXTT11=
PLAYORDER=
